<svg width="100" height="100" viewBox="0 0 100 100" fill="none" xmlns="http://www.w3.org/2000/svg">
<path d="M92.6999 19.4C89.9999 17.3 90.8999 13.7 88.4999 11C87.3999 9.8 86.1999 8.9 84.6999 8.3C82.9999 7.5 80.5999 7.9 78.8999 7C76.2999 5.7 75.8999 2.5 72.1999 2.5C68.9999 2.5 67.4 4.8 67 7.7C66.7999 9.6 66.5999 11.5 66.5999 13.4C66.3999 14 66.1999 14.7 66.1999 15.4C66.0999 17 66 18.7 66 20.4C61.7999 19.7 57.5 19.9 53.4 21C43.4 20.4 33.0999 25.9 25.4999 31.9C20.7999 35.7 16.7999 40.3 13.6999 45.5C13.6999 45.6 13.5999 45.6 13.5999 45.7C10.9999 47 8.49995 48.7 6.29995 50.6C5.29995 51.5 4.99995 52.9 5.29995 54.2C5.49995 56.3 7.29995 57.9 9.49995 57.8C9.69995 57.8 9.89995 57.8 10.0999 57.7C10.3999 57.6 10.6999 57.6 10.9999 57.5C11.0999 57.8 11.1999 58.1 11.2999 58.4C11.2999 58.7 11.2999 59 11.2999 59.3C12.9999 77.4 26.4 90.9 44.5 92.4C44.7 92.9 44.7999 93.4 45 93.8C45.7 95.6 47.6 97.1 49.7 96.4C50.4 96.2 51 95.8 51.5 95.3C52.2999 95 53 94.4 53.5 93.7L56.4 88.8C62.6 86.5 67.6999 81.2 71.3999 75.6C72.2 74.3 72.9999 73 73.5999 71.7C77.6999 65.9 80.1999 59.2 80.5999 52.1C81.2999 46.4 81.2999 40.6 80.7999 34.9C86.2 32 95.5999 34.3 96.5999 26.4C96.9999 23.2 95.0999 21.2 92.6999 19.4Z" fill="#FFC048"/>
<path d="M96.1001 27.6C95.2001 26.2 94.2001 24.9 92.9001 23.8C92.4001 23.3 92.0001 22.8 91.5001 22.3C91.2001 21.9 90.9001 21.3 90.8001 20.8C90.7001 20.3 90.6001 19.9 90.6001 19.4C90.6001 18.8 90.5001 18.2 90.5001 17.5C90.0001 14.4 87.7001 11.9 84.7001 11C83.2001 10.7 81.7001 10.5 80.2001 10.5C79.6001 10.5 79.0001 10.4 78.5001 10.2C78.0001 10 77.6001 9.8 77.3001 9.5C77.0001 9.2 76.8 8.8 76.6001 8.4C76.3 7.8 76.0001 7.3 75.7001 6.8C75.1001 5.9 74.2001 5.1 73.2001 4.7C72.2001 4.2 71.1001 4 70.0001 4C69.1001 4 68.2001 4.2 67.4001 4.5C66.9001 4.7 66.6001 5.1 66.6001 5.6L64.8001 19.6C64.2001 16.8 63.2001 14 61.9001 11.4C61.6001 10.9 61.3001 10.4 61.0001 9.9C60.6001 9.4 60.1001 8.9 59.6001 8.5C58.6001 7.9 57.5001 7.6 56.4001 7.6C56.3001 7.6 56.2001 7.6 56.0001 7.6C55.1001 7.6 54.2001 7.7 53.4001 8.1C52.4001 8.6 51.5001 9.4 51.0001 10.4C50.2001 11.9 50.0001 13.7 50.5001 15.3C50.9001 16.5 51.5001 17.6 52.4001 18.6C53.2001 19.5 54.1001 20.3 55.1001 20.9L55.9001 19.7L55.1001 20.9C55.5001 21.1 55.8001 21.4 56.2001 21.6C55.1001 21.5 54.1001 21.5 52.9001 21.5C51.3001 21.5 49.6001 21.6 47.9001 21.7C43.1001 22.2 31.5001 23.4 21.1001 32.3C16.7001 36.1 13.1001 40.8 10.5001 46C10.3001 46.4 10.0001 46.7 9.60005 47L5.40005 49.9C3.40005 51.2 2.90005 53.9 4.20005 55.9C4.50005 56.5 5.00005 57 5.70005 57.3L8.40005 58.7C9.00005 59 9.40005 59.6 9.50005 60.2C11.0001 67.7 14.5001 74.6 19.8001 80.2C25.7001 86.4 33.3001 90.6 41.7001 92.4C42.1001 92.5 42.4001 92.7 42.6001 92.9L43.2001 92.3L42.6001 92.9L45.4001 95.9C47.4001 98 50.7001 98.1 52.8001 96.1C52.9001 96 52.9001 96 53.0001 95.9L57.6001 91.1C57.8001 90.9 58.0001 90.8 58.2001 90.7C65.4001 86.6 71.3 80.5 75.2001 73.2C78.8 66.4 79.6001 59.2 79.6001 52.9C79.6001 49.5 79.4 46.3 79.2001 43.6C79.1001 41.4 78.8 39.4 78.6001 37.9C82.2001 35.2 86.5001 33.6 91.0001 33.4C92.0001 33.4 93.1001 33.2 94.0001 32.9C94.6001 32.7 95.1001 32.4 95.5001 32C96.0001 31.5 96.3001 30.9 96.4001 30.2C96.4001 30 96.4001 29.9 96.4001 29.7C96.6001 28.8 96.4001 28.2 96.1001 27.6ZM50.5001 27.2C50.7001 26.7 51.1001 26.3 51.5001 25.9C52.2001 25.4 53.1001 25 54.0001 24.9C55.0001 24.7 56.1001 24.6 57.1001 24.6C57.2001 24.6 57.4001 24.6 57.5001 24.5C59.9001 24.7 62.2001 25.1 64.5001 25.7C64.6001 25.8 64.7001 25.9 64.7001 26C63.6001 27.8 62.2001 29.4 60.6001 30.8C59.7001 31.5 58.8001 32.2 57.8001 32.6C56.9001 33 55.9001 33.3 54.9001 33.3C54.0001 33.3 53.1001 33.1 52.3001 32.6C51.7001 32.2 51.1001 31.7 50.8001 31C50.4001 30.3 50.2001 29.4 50.2001 28.6C50.2001 28.1 50.3001 27.6 50.5001 27.2ZM54.3001 16.7C53.7001 16.1 53.3001 15.3 53.0001 14.5C52.7001 13.6 52.8001 12.6 53.3001 11.8C53.5001 11.4 53.9001 11 54.3001 10.8C54.8001 10.6 55.3001 10.5 55.7001 10.6C55.8001 10.6 55.9001 10.6 56.0001 10.6C56.6001 10.6 57.2001 10.7 57.8001 11C58.1001 11.2 58.3001 11.4 58.5001 11.7C58.7001 12.1 59.0001 12.4 59.2001 12.8C60.5001 15.3 61.5001 18 62.0001 20.8C62.0001 20.9 62.1001 21.1 62.1001 21.2C61.9001 21.1 61.6001 21.1 61.3001 21C59.6001 20.4 58.0001 19.6 56.5001 18.6C55.7001 18 54.9001 17.4 54.3001 16.7ZM72.7001 71.8C69.0001 78.6 63.5001 84.3 56.8001 88.1C56.4001 88.4 56.0001 88.7 55.6001 89L51.0001 93.9C50.1001 94.8 48.6001 94.9 47.6001 94L47.5001 93.9C47.0001 93.4 46.6001 92.9 46.1001 92.5H46.2001C47.0001 92.5 47.6001 91.8 47.6001 91C47.6001 90.2 46.9001 89.6 46.1001 89.6C45.9001 89.6 45.8001 89.6 45.6001 89.6C44.7001 89.6 43.8001 89.5 42.9001 89.4C42.6001 89.4 42.3001 89.4 42.0001 89.5C34.3001 87.8 27.2001 83.9 21.7001 78.2C16.8001 73 13.5001 66.6 12.1001 59.6C11.8001 58.1 10.8001 56.8 9.50005 56.1L7.00005 54.8C6.70005 54.7 6.50005 54.5 6.40005 54.2C6.30005 54 6.20005 53.7 6.20005 53.4C6.20005 52.9 6.40005 52.4 6.90005 52.2L11.1001 49.3C11.9001 48.8 12.5001 48.1 12.9001 47.2C15.3001 42.3 18.7001 37.9 22.8001 34.4C32.4001 26.1 43.3001 24.9 48.0001 24.5C48.3001 24.5 48.6001 24.5 48.9001 24.4C48.5001 24.9 48.2001 25.4 47.9001 25.9C47.5001 26.7 47.3001 27.6 47.4001 28.6C47.4001 29.9 47.7001 31.2 48.3001 32.3C48.9001 33.5 49.8001 34.5 51.0001 35.1C52.2001 35.7 53.5001 36.1 54.9001 36.1C56.3001 36.1 57.7001 35.8 59.0001 35.2C60.9001 34.3 62.6001 33 64.0001 31.5C65.0001 30.5 65.9001 29.4 66.7001 28.3C68.0001 29.8 69.4001 31.3 70.9001 32.9C72.6001 34.6 74.2001 36.1 75.8001 37.5C76.0001 39 76.3001 41.2 76.5001 43.7C76.7001 46.4 76.9001 49.6 76.9001 52.9C76.8001 58.9 76.0001 65.6 72.7001 71.8ZM93.8001 29.6C93.8001 29.7 93.8 29.8 93.7001 29.8C93.4 30 93.1001 30.2 92.7001 30.2C92.1001 30.3 91.6001 30.4 91.0001 30.4C86.1001 30.6 81.4001 32.3 77.5001 35.2C76.0001 33.9 74.5001 32.5 72.9001 30.9C70.8001 28.8 68.8001 26.6 67.0001 24.2C67.8001 18.4 68.5001 12.6 69.3001 6.8C69.6001 6.7 69.8 6.7 70.1001 6.7C70.8 6.7 71.4001 6.9 72.0001 7.2C72.6001 7.5 73.1001 7.9 73.5001 8.4C73.8001 8.8 74.0001 9.3 74.3001 9.7C74.6001 10.3 75.0001 10.9 75.5001 11.4C75.6001 11.5 75.7001 11.5 75.7001 11.6C74.5001 13.1 73.5001 14.6 72.5001 16.2C72.1001 16.9 72.3001 17.7 73.0001 18.1C73.7001 18.5 74.5001 18.3 74.9001 17.6C75.8001 16.1 76.8001 14.6 78.0001 13.2C78.1001 13.1 78.1001 13 78.2001 12.9C79.2001 13.1 80.2001 13.3 81.2001 13.3C82.2001 13.3 83.2001 13.4 84.1001 13.6C86.0001 14.2 87.5001 15.8 87.8001 17.8C87.9001 18.3 87.9001 18.8 87.9001 19.4C87.9001 19.7 87.9001 20.1 88.0001 20.5C87.9001 20.5 87.8001 20.6 87.8001 20.6C85.5001 22.2 83.1001 23.7 80.7001 25.2C80.0001 25.6 79.8 26.5 80.2001 27.1C80.6001 27.7 81.5001 28 82.1001 27.6C84.4001 26.2 86.6001 24.7 88.8001 23.2C88.9001 23.4 89.1001 23.6 89.2001 23.8C89.9 24.8 90.8 25.7 91.7001 26.5C92.4 27.2 93.1001 28 93.6001 28.8C93.7001 29.1 93.7001 29.3 93.8001 29.6Z" fill="black"/>
<path d="M54.7001 40.9999C53.7001 41.7999 52.7 42.6999 51.8 43.5999C50.3 42.5999 48.5 42.0999 46.7001 42.0999C46.4001 42.0999 46.1 42.0999 45.8 42.0999C43.6 42.2999 41.6 43.2999 40 44.7999C39.3 45.4999 38.6 46.2999 38.2001 47.1999C37.7001 48.0999 37.5001 49.0999 37.4001 50.0999V50.1999C37.4001 51.5999 37.9001 52.9999 38.7001 54.0999C39.4001 55.0999 40.3001 56.0999 41.2001 56.9999C42.1 57.8999 43.1 58.6999 44.2001 59.4999C44.9001 59.9999 45.5001 60.5999 45.9001 61.2999C46.6001 62.2999 47 63.3999 47.1 64.5999C47.1 64.8999 47.1 65.0999 47 65.3999C46.8 66.1999 46.4 66.9999 45.8 67.4999C45.3 67.9999 44.8 68.2999 44.3 68.6999C43.1 69.3999 41.7 69.7999 40.3 69.7999C39.9 69.7999 39.6 69.7999 39.2001 69.6999C37.6 69.3999 36.1 68.6999 35 67.5999C33.9 66.4999 33 65.0999 32.5 63.5999C32.2 62.7999 32 61.9999 32 61.0999C32 59.8999 32.2 58.5999 32.7 57.4999C33.0001 56.7999 32.6 55.8999 31.9 55.6999C31.2 55.3999 30.4 55.7999 30.1 56.4999C29.5 57.9999 29.2 59.5999 29.2 61.1999C29.2 62.2999 29.4 63.4999 29.7 64.5999C30.1 65.8999 30.7 67.0999 31.5 68.0999C30.7 68.9999 30 69.7999 29.3 70.7999C28.8 71.3999 28.9 72.2999 29.6 72.7999C30.2 73.2999 31.1 73.1999 31.6 72.4999C32.2 71.6999 32.8 70.9999 33.5 70.1999C35 71.4999 36.8 72.2999 38.8 72.5999C39.3 72.6999 39.8 72.6999 40.3 72.6999C42.2 72.6999 44.2 72.1999 45.8 71.1999C46.5 70.7999 47.2 70.1999 47.8 69.5999C48.8 68.5999 49.5 67.3999 49.8 66.0999C49.9 65.5999 49.9001 65.1999 49.9001 64.6999C49.8001 62.9999 49.3 61.2999 48.3 59.8999C47.7 58.8999 46.8 57.9999 45.8 57.2999C44.9 56.6999 44.0001 55.9999 43.2001 55.1999C42.4001 54.3999 41.7 53.5999 41 52.6999C40.5 51.9999 40.2 51.1999 40.1 50.3999V50.2999C40.1 49.6999 40.3 49.1999 40.5 48.5999C41 47.5999 41.7 46.7999 42.6 46.1999C43.6 45.4999 44.7 45.0999 45.8 44.9999C46 44.9999 46.2001 44.9999 46.4001 44.9999C48.6001 44.9999 50.7001 46.0999 51.9001 47.8999C52.7001 48.9999 53.1 50.2999 53 51.5999C53 52.5999 52.8 53.4999 52.5 54.3999C52.2001 55.0999 52.5 55.9999 53.2001 56.2999C53.9001 56.5999 54.8 56.2999 55.1 55.5999C55.6 54.2999 55.9001 52.9999 55.9001 51.5999C55.9001 49.6999 55.3 47.7999 54.3 46.1999C54.1 45.8999 53.9001 45.6999 53.7001 45.4999C54.5 44.6999 55.3001 43.9999 56.2001 43.2999C56.8001 42.7999 57 41.8999 56.5 41.2999C56.2001 40.6999 55.3001 40.4999 54.7001 40.9999Z" fill="black"/>
</svg>
