<svg width="199" height="66" viewBox="0 0 199 66" fill="none" xmlns="http://www.w3.org/2000/svg">
<path fill-rule="evenodd" clip-rule="evenodd" d="M198.766 44.9354C199.199 45.4157 199.029 46.3755 198.268 47.8149C192.529 58.9149 174.604 62.9428 170.294 50.3706C168.54 45.1203 170.161 38.9978 173.2 34.5087C180.403 23.8705 193.627 28.8536 190.152 32.315C189.737 32.7292 177.738 33.0843 178.408 45.6028C178.658 50.263 183.717 50.9115 190.494 47.8537C191.012 47.62 192.003 47.1148 193.501 46.3755C194.578 45.8177 195.378 45.4416 195.918 45.2336C197.401 44.5985 198.36 44.5071 198.766 44.9354Z" fill="#662D52"/>
<path fill-rule="evenodd" clip-rule="evenodd" d="M95.4042 31.6996C95.6523 31.7146 95.867 31.948 96.0295 32.3838C96.1328 32.61 96.2186 32.8806 96.2864 33.2035C96.3292 33.4666 96.3729 33.8433 96.4068 34.3244C96.5271 36.3095 96.1926 38.6255 95.4042 41.2879C94.07 45.8079 88.0073 59.4892 82.5558 64.4201C72.3216 73.6773 67.7774 30.3887 67.7815 30.3906C68.9183 30.8768 72.328 34.1057 73.0951 35.5927C75.385 40.028 75.9501 48.5523 77.3638 52.8318C80.2178 61.4708 83.0883 56.8938 93.6725 33.903C93.7878 33.6534 93.9557 33.3389 94.1781 32.9632C94.3241 32.6773 94.4698 32.4442 94.5981 32.2562C94.8977 31.8576 95.1724 31.6768 95.4042 31.6996Z" fill="#662D52"/>
<path fill-rule="evenodd" clip-rule="evenodd" d="M14.3782 38.8851C15.7796 42.9397 16.5388 47.9509 14.1172 50.0086C12.2236 51.6169 9.38702 51.9683 7.5647 50.1678C6.61188 49.1736 6.151 48.0317 5.7541 46.9063C2.77782 38.4634 -2.9983 43.4446 1.89945 52.4979C2.64795 53.7812 3.51461 54.8715 4.52602 55.7663C5.98375 57.0246 7.59891 57.8158 9.37213 58.1139C11.3421 58.5028 13.3253 58.3085 15.2949 57.5433C16.1616 57.2192 17.0026 56.8297 17.7903 56.376C18.3025 56.0381 18.6963 55.7919 18.9456 55.6108C19.4318 55.2601 19.7866 54.9876 19.9836 54.8064L20.378 54.5077L20.8769 54.1316C21.2307 53.7947 21.6121 53.4189 22.0321 52.9907C22.4578 52.5004 22.8417 51.987 23.1803 51.4552C23.1632 51.3573 23.1483 51.2593 23.1354 51.1611C23.0958 50.8113 23.0701 50.6039 23.0701 50.5517C23.0435 50.4609 23.0305 50.2663 23.0305 49.981C23.0042 49.7864 23.0042 49.3976 23.0305 48.8526C23.0305 48.7493 23.0701 48.4377 23.1354 47.9315V47.7376L23.1746 47.6334V47.4779V47.4388L23.2142 47.4C23.2142 47.3481 23.2278 47.283 23.2535 47.2186C23.2535 47.1147 23.2671 47.0496 23.2931 47.024C23.4242 46.3882 23.5294 45.8955 23.6083 45.5451C23.9469 44.0084 24.3207 42.696 24.7299 41.5932C24.4547 40.2357 24.015 38.8435 23.4113 37.4122C22.7153 35.817 21.8221 34.1827 20.7191 32.5095C20.2329 31.77 19.7077 31.0179 19.1429 30.2655L18.9852 30.0318L18.9063 29.9538L18.7229 29.6948L18.6044 29.5781L18.224 29.1242L17.4489 28.216C14.9667 25.1938 14.5908 25.089 13.4346 22.987C8.29831 13.5323 18.3352 10.3443 21.9519 14.4749C22.9326 15.5962 22.4347 15.8189 23.5494 17.1326C26.9865 21.1787 30.2979 14.1258 26.6847 9.52748C20.7163 1.93208 -2.59126 6.39302 5.86623 24.2659C8.44244 29.7095 12.4681 33.3614 14.3782 38.8851Z" fill="#662D52"/>
<path fill-rule="evenodd" clip-rule="evenodd" d="M43.6512 28.7734C45.2628 31.2149 46.6297 34.8574 46.9803 40.2804C48.7931 39.4363 50.3396 40.5788 47.1593 42.7062C42.8675 63.4042 20.3674 66.0969 22.0817 43.1051C22.612 35.9993 25.676 28.7747 30.6168 25.5651C35.6615 22.2871 40.4104 23.8619 43.6512 28.7734ZM27.2883 44.3825C27.2883 44.3825 33.5842 48.7045 38.9878 47.6014C37.1056 54.1059 25.6475 60.2778 27.2883 44.3825ZM40.2378 42.5304C37.703 42.5204 29.5889 40.8689 29.6168 38.1414C29.6418 35.7544 31.4141 31.5706 34.1259 30.994C39.9048 29.7655 40.5688 39.8277 40.2378 42.5304Z" fill="#662D52"/>
<path fill-rule="evenodd" clip-rule="evenodd" d="M46.0549 44.9632C46.0549 44.9632 52.0274 40.3687 54.4389 35.2527C44.5677 21.9193 69.1822 13.2182 62.2084 32.8715C68.9817 38.0837 57.9664 54.6025 64.0646 52.8102C65.7131 52.3259 70.6136 48.2907 71.8439 49.0507C74.0917 50.5805 65.0409 60.1703 60.4365 57.5261C55.922 54.9335 54.8013 45.6947 56.7247 41.4684C57.0734 40.701 44.7103 50.5182 46.0549 44.9632ZM58.3246 31.0201C52.2821 26.4196 61.5233 22.5778 58.3246 31.0201V31.0201Z" fill="#662D52"/>
<path fill-rule="evenodd" clip-rule="evenodd" d="M130.074 29.0156C130.074 29.0156 132.947 14.2831 134.42 13.5779C139.16 11.7919 136.332 25.8745 136.162 28.4402C136.14 28.7672 144.164 27.644 143.442 30.0789C142.594 32.934 138.178 34.3713 135.226 34.6644C133.441 40.2801 128.073 60.8106 141.788 52.3439C141.788 52.3439 146.075 50.3595 142.503 56.0046C135.852 63.9529 124.398 57.6246 126.07 47.0965L128.611 35.1343C119.073 35.3646 122.036 29.8722 130.074 29.0156Z" fill="#662D52"/>
<path fill-rule="evenodd" clip-rule="evenodd" d="M148.233 27.853C154.706 23.6405 162.354 26.9508 162.004 33.831C161.602 41.7471 154.28 45.7006 147.594 46.5772C151.502 60.7325 169.968 42.6903 171.26 44.0462C171.26 44.0462 173.503 44.9501 167.124 51.8012C146.464 73.9914 127.271 41.4934 148.233 27.853ZM148.487 40.6368C164.814 36.1195 150.527 26.2481 148.487 40.6368V40.6368Z" fill="#662D52" stroke="#662D52" stroke-width="0.0202" stroke-miterlimit="22.9256"/>
<path fill-rule="evenodd" clip-rule="evenodd" d="M103.55 28.4114C110.023 24.1986 117.672 27.5085 117.322 34.3888C116.919 42.3055 109.598 46.2583 102.911 47.1356C106.819 61.2902 125.286 43.2487 126.577 44.6049C126.577 44.6049 128.82 45.5084 122.441 52.3599C101.782 74.5492 82.5878 42.0517 103.55 28.4114ZM103.805 41.1945C105.844 26.8059 120.132 36.6773 103.805 41.1945V41.1945Z" fill="#662D52"/>
<path fill-rule="evenodd" clip-rule="evenodd" d="M69.865 12.894C64.8386 29.3866 106.466 15.9459 97.4738 36.8522C84.4812 26.958 52.7694 38.3977 69.865 12.894Z" fill="#E19938"/>
<path fill-rule="evenodd" clip-rule="evenodd" d="M99.2826 27.1372C107.377 5.0396 71.4619 19.9066 75.6365 3.41309C60.7218 28.1674 88.4909 17.2427 99.2826 27.1372Z" fill="#B0723A"/>
<path fill-rule="evenodd" clip-rule="evenodd" d="M97.7818 15.0325C102.457 0.0362909 78.9098 11.1316 81.1496 0C71.9975 16.9922 90.2223 8.79331 97.7818 15.0325Z" fill="#F9CD81"/>
</svg>
