<svg width="199" height="127" viewBox="0 0 199 127" fill="none" xmlns="http://www.w3.org/2000/svg">
<path d="M2.26248 126.901C5.10298 127.028 9.23161 127.028 10.5032 126.915L11.4941 126.83L11.9565 125.712C12.2042 125.103 12.485 124.565 12.5676 124.522C12.6501 124.48 12.6666 124.536 12.6171 124.65C12.5676 124.777 12.5345 124.876 12.5676 124.876C12.6006 124.876 13.2446 124.381 13.9713 123.758C15.7053 122.328 17.01 121.747 18.711 121.648C19.5202 121.606 20.1312 121.662 20.6266 121.804C21.0395 121.931 21.4193 122.002 21.5019 121.96C21.7166 121.846 22.6249 122.37 23.4011 123.064C24.1608 123.729 25.3498 125.57 25.5149 126.335L25.6305 126.816L27.3646 126.915C29.5775 127.028 32.1207 127.028 33.5575 126.915L34.6475 126.816L34.7631 126.306C34.9612 125.372 35.1924 124.735 35.3246 124.777C35.3906 124.791 35.9686 124.267 36.5962 123.602C38.5944 121.521 40.1138 120.77 42.3763 120.77C43.0864 120.77 43.8626 120.855 44.2259 120.983C44.7709 121.167 44.8039 121.167 44.5231 120.983C43.9617 120.615 44.4901 120.756 45.2663 121.167C46.9838 122.115 48.3545 123.871 48.8335 125.782L49.0977 126.816L50.9308 126.915C53.2758 127.028 55.6539 127.028 56.9421 126.915L57.9495 126.816L58.1311 126.094C58.2302 125.697 58.4284 125.174 58.544 124.947C58.7422 124.607 58.7752 124.593 58.6761 124.876C58.61 125.103 58.9403 124.848 59.6009 124.14C60.889 122.767 61.7973 122.073 63.0359 121.549C63.9112 121.167 64.1424 121.124 65.6783 121.124C66.6196 121.124 67.2637 121.068 67.1646 121.011C67.0324 120.926 67.082 120.912 67.2637 120.969C67.4288 121.011 67.6105 121.054 67.6435 121.054C67.693 121.054 67.6765 121.11 67.627 121.195C67.5774 121.266 67.627 121.294 67.7756 121.252C68.1059 121.138 69.1463 121.747 70.0546 122.568C70.9959 123.446 71.8051 124.777 72.0694 125.924L72.2841 126.788L74.1667 126.901C75.2071 126.972 76.8751 126.972 77.8825 126.929L79.7321 126.83L79.8312 126.037C79.9963 124.834 80.1119 124.395 80.2441 124.565C80.3101 124.65 80.723 124.211 81.1689 123.574C81.6148 122.937 82.3414 122.087 82.7873 121.662C84.3562 120.19 86.9985 119.468 88.9307 119.977C89.3766 120.091 89.7729 120.176 89.806 120.147C89.839 120.119 89.5913 120.02 89.261 119.921C88.9307 119.822 88.6995 119.723 88.7325 119.694C88.8646 119.581 90.1693 120.091 90.0702 120.218C90.0207 120.289 90.1032 120.303 90.2354 120.261C90.6317 120.133 92.6465 121.945 93.1915 122.922C93.7695 123.956 94.1328 125.174 94.1328 126.094L94.1328 126.816L96.2301 126.901C98.8724 127.028 101.003 127.028 102.407 126.915L103.497 126.816L103.695 126.023C103.794 125.584 103.992 125.032 104.124 124.805C104.322 124.466 104.355 124.452 104.273 124.735C104.19 124.961 104.537 124.692 105.264 123.956C106.568 122.611 107.823 121.747 109.111 121.337C109.888 121.082 110.317 121.039 111.39 121.082C112.117 121.124 112.86 121.195 113.042 121.238C113.224 121.294 113.141 121.252 112.877 121.138C112.299 120.884 112.579 120.841 113.191 121.068C113.422 121.167 113.57 121.294 113.504 121.379C113.455 121.464 113.488 121.478 113.587 121.422C113.851 121.294 115.106 122.045 115.767 122.71C116.493 123.475 117.385 125.046 117.616 126.009L117.798 126.816L119.631 126.915C121.993 127.028 125.51 127.028 126.799 126.915L127.806 126.816L128.169 125.811C128.367 125.259 128.566 124.876 128.599 124.975C128.632 125.074 129.028 124.791 129.457 124.338C130.597 123.163 131.835 122.257 132.909 121.804C133.702 121.478 134.065 121.422 135.254 121.407C136.03 121.407 136.872 121.45 137.153 121.507L137.649 121.606L137.153 121.407C136.872 121.294 136.74 121.209 136.856 121.195C137.203 121.195 137.896 121.507 137.797 121.634C137.748 121.705 137.814 121.719 137.946 121.676C138.243 121.577 139.746 122.611 140.39 123.361C141.067 124.14 141.645 125.202 141.876 126.094L142.074 126.816L143.908 126.901C146.236 127.028 149.225 127.028 150.645 126.915L151.752 126.816L151.868 126.25C151.983 125.598 152.396 124.565 152.413 124.848C152.429 124.961 152.858 124.536 153.387 123.928C154.543 122.597 155.666 121.719 156.888 121.223C157.681 120.898 158.011 120.841 159.365 120.841C160.224 120.841 161.116 120.898 161.347 120.954C161.677 121.054 161.71 121.039 161.512 120.912C161.297 120.77 161.314 120.756 161.562 120.827C161.727 120.869 161.908 120.912 161.941 120.912C161.991 120.912 161.974 120.969 161.925 121.054C161.875 121.124 161.925 121.153 162.057 121.11C162.206 121.068 162.734 121.379 163.395 121.903C164.666 122.937 165.641 124.437 165.954 125.896L166.169 126.816L168.002 126.901C170.331 127.028 172.511 127.028 173.914 126.915L175.021 126.816L175.12 126.306C175.285 125.457 175.549 124.735 175.698 124.777C175.781 124.791 176.309 124.296 176.887 123.687C178.885 121.549 180.454 120.77 182.75 120.77C183.46 120.77 184.236 120.855 184.599 120.983C185.144 121.167 185.177 121.167 184.897 120.983C184.335 120.615 184.864 120.756 185.64 121.167C187.374 122.13 188.844 124.055 189.256 125.91L189.455 126.816L191.288 126.901C193.633 127.028 195.895 127.028 197.629 126.901L199 126.816L199 123.517L199 120.204L198.207 120.204C197.233 120.204 195.383 119.949 195.053 119.765C194.855 119.666 194.921 119.652 195.284 119.723C195.664 119.793 195.581 119.723 194.921 119.425C192.857 118.477 191.502 117.245 190.875 115.702C190.396 114.555 190.528 112.941 191.172 111.766C191.75 110.718 193.121 109.529 194.541 108.835C195.251 108.495 195.499 108.311 195.284 108.297C194.541 108.254 196.704 107.915 197.794 107.9L199 107.886L199 103.724L199 99.5612L197.712 99.5612C196.638 99.547 194.937 99.3064 195.697 99.2639C195.829 99.2497 195.449 99.0373 194.871 98.7967C193.369 98.1454 191.866 96.8853 191.205 95.7385C190.71 94.8748 190.66 94.6907 190.66 93.4448C190.66 92.1989 190.71 92.0148 191.205 91.1512C191.866 90.0043 193.286 88.8292 194.838 88.1354C195.449 87.8664 195.829 87.6399 195.697 87.6257C195.103 87.5691 196.556 87.3851 197.712 87.3709L199 87.3567L199 84.1003L199 80.8439L197.877 80.8298C196.903 80.8156 194.739 80.4758 195.367 80.4333C195.499 80.4333 195.119 80.1785 194.541 79.8812C193.104 79.1732 191.734 77.9981 191.139 76.9504C190.71 76.1858 190.66 75.9593 190.66 74.6851C190.66 73.4108 190.71 73.1843 191.139 72.4197C191.75 71.372 192.956 70.3243 194.425 69.5597C195.053 69.2483 195.466 68.9509 195.334 68.9226C195.02 68.8235 197.15 68.5262 198.141 68.5262L199 68.5262L199 64.3637L199 60.2011L198.356 60.2719C197.629 60.3568 195.235 60.0454 195.515 59.9038C195.615 59.8472 195.383 59.6773 194.937 59.4932C193.93 59.0684 192.592 58.1765 192.014 57.5535C191.75 57.2703 191.354 56.6899 191.106 56.2368C190.726 55.543 190.66 55.2457 190.66 54.0847C190.66 52.9096 190.726 52.6264 191.106 51.9185C191.701 50.8283 193.302 49.4691 194.739 48.8461C195.334 48.5771 195.813 48.3223 195.763 48.2657C195.681 48.1382 196.771 47.9967 197.96 47.9967L199 47.9967L199 44.4571L199 40.9175L198.042 40.9033C197.183 40.8892 195.136 40.5494 195.697 40.5069C195.829 40.5069 195.466 40.2521 194.888 39.9547C193.352 39.1902 192.163 38.1425 191.519 36.9956C191.04 36.132 190.99 35.9055 190.99 34.7586C190.99 33.6118 191.04 33.3853 191.519 32.5216C192.163 31.3748 193.352 30.3271 194.888 29.5484C195.466 29.2652 195.829 29.0104 195.697 29.0104C195.136 28.9679 197.183 28.6281 198.042 28.6139L199 28.5998L199 24.508L199 20.4304L197.712 20.3172C197.018 20.2605 196.143 20.1331 195.78 20.0198C195.284 19.8783 195.251 19.8499 195.615 19.8924C195.994 19.949 195.895 19.8641 195.119 19.5101C193.682 18.8305 192.163 17.5563 191.568 16.5086C190.346 14.399 190.924 11.893 193.005 10.1798C193.699 9.59932 195.4 8.63656 195.73 8.6224C195.846 8.6224 195.796 8.55161 195.615 8.48081C195.334 8.36755 195.35 8.35339 195.73 8.39587C195.978 8.42418 196.143 8.41003 196.11 8.35339C195.994 8.19765 196.903 8.07022 198.026 8.07022L199 8.07022L199 4.12006L199 0.169891L197.051 0.070778C195.334 -0.0283278 189.603 0.0707783 189.455 0.198204C189.422 0.226525 189.289 0.637116 189.157 1.11849C188.513 3.49709 186.251 5.70579 183.972 6.14469C183.608 6.21549 183.608 6.20133 184.021 6.03143C184.451 5.86153 184.368 5.86153 183.196 5.91816C180.751 6.03143 179.001 5.25272 176.97 3.1573C176.359 2.52017 175.929 2.19453 175.863 2.29363C175.748 2.43522 175.45 1.69899 175.137 0.552163C175.037 0.212365 174.938 0.169892 174.03 0.0849391C172.742 -0.0283268 169.538 -0.0283267 167.21 0.0849394L165.376 0.184045L165.195 1.03355C164.947 2.15206 164.154 3.48293 163.23 4.37491C162.387 5.18193 161.446 5.7341 161.165 5.57836C161.033 5.50757 161.017 5.53589 161.099 5.66332C161.198 5.8049 161.165 5.83322 160.951 5.76242C160.802 5.70579 160.703 5.71995 160.752 5.79074C160.851 5.91816 160.472 6.10222 160.141 6.07391C160.026 6.07391 160.092 6.01727 160.257 5.96064C160.422 5.90401 159.91 5.88985 159.101 5.91816C156.657 6.01727 155.237 5.36599 152.941 3.11482C152.346 2.53433 151.801 2.0671 151.735 2.08126C151.686 2.09542 151.504 1.67067 151.339 1.13265L151.042 0.155733L149.638 0.0566275C148.383 -0.0283257 142.685 0.0849405 142.553 0.212367C142.52 0.226527 142.388 0.637118 142.256 1.11849C141.794 2.84581 140.539 4.4457 138.92 5.40847C138.524 5.635 138.094 5.79074 137.962 5.74826C137.83 5.70579 137.748 5.71995 137.797 5.79074C137.847 5.86153 137.665 5.98896 137.368 6.07391C136.707 6.27212 136.526 6.25796 137.087 6.04559C137.45 5.90401 137.269 5.87569 135.848 5.87569C134.346 5.87569 134.081 5.83322 133.239 5.47926C132.133 5.01203 130.812 4.02095 129.804 2.90245C129.325 2.36443 129.044 2.16622 128.962 2.27948C128.846 2.43522 128.566 1.75563 128.235 0.552165C128.136 0.212367 128.037 0.169894 127.129 0.0849412C125.841 -0.0283247 122.637 -0.0283246 120.308 0.0849415L118.475 0.184047L118.294 1.03355C118.046 2.15206 117.253 3.48294 116.328 4.37491C115.486 5.18193 114.545 5.7341 114.264 5.57837C114.132 5.50757 114.115 5.53589 114.198 5.66332C114.297 5.8049 114.264 5.83322 114.049 5.76242C113.901 5.70579 113.802 5.71995 113.851 5.79074C113.95 5.91816 113.57 6.10222 113.24 6.07391C113.124 6.07391 113.191 6.01728 113.356 5.96064C113.521 5.90401 113.009 5.88985 112.2 5.91816C109.756 6.01728 108.335 5.36599 106.073 3.1573C105.495 2.59096 104.983 2.12374 104.917 2.1379C104.768 2.15206 104.421 1.40167 104.289 0.736225L104.19 0.169896L102.621 0.0707821C101.762 0.0141491 99.9129 0.0141492 98.5091 0.0707823L95.9494 0.169896L95.8503 0.552167C95.5365 1.71315 95.3714 2.1379 94.8429 3.00155C94.1823 4.07759 92.4648 5.60669 92.0519 5.4651C91.9033 5.42263 91.8538 5.43679 91.9033 5.52173C92.0024 5.66332 91.3088 5.9748 90.4996 6.1447C90.1363 6.21549 90.1363 6.20133 90.5491 6.03143C90.9785 5.86153 90.8959 5.86153 89.7069 5.91816C87.2958 6.03143 85.5617 5.26688 83.547 3.19977C82.969 2.60512 82.457 2.19453 82.3909 2.27949C82.3084 2.4069 81.912 1.47246 81.6808 0.552167C81.5983 0.212369 81.4992 0.169896 80.5744 0.0849432C79.2697 -0.0283227 76.3962 -0.0283226 73.886 0.0849435L71.9042 0.184049L71.7226 1.03355C71.4253 2.33612 70.5996 3.62452 69.4105 4.65808C68.7169 5.25273 68.2875 5.52173 68.1059 5.4651C67.9738 5.42263 67.8912 5.43679 67.9407 5.50757C68.0563 5.66332 67.5774 5.83322 67.3462 5.70579C67.2471 5.66332 67.2141 5.69163 67.2637 5.76243C67.3297 5.84737 67.1481 5.98896 66.8508 6.07391C66.1902 6.27212 66.0085 6.25796 66.57 6.04559C66.9499 5.90401 66.7517 5.87569 65.3314 5.87569C63.8121 5.87569 63.5809 5.83322 62.6726 5.45094C61.6322 5.01204 59.766 3.53957 58.8082 2.4069C58.3788 1.92553 58.2797 1.85473 58.3623 2.12374C58.4449 2.42106 58.4119 2.4069 58.2137 2.05295C58.0981 1.81226 57.8999 1.30256 57.8008 0.906126L57.6192 0.18405L56.6118 0.0849443C55.3236 -0.0283217 52.5492 -0.0283215 50.3197 0.0849445L48.5857 0.18405L48.2059 1.18929C47.9912 1.74147 47.5288 2.5768 47.149 3.04403C46.4058 3.96432 44.8369 5.15362 44.5066 5.04035C44.391 5.01204 43.9782 5.06867 43.5818 5.1961C43.0864 5.33768 42.4754 5.39431 41.6826 5.35184C39.8826 5.25273 38.6275 4.68639 36.8109 3.14314C35.9356 2.40691 35.3741 2.02463 35.4236 2.19453C35.4732 2.35027 35.3246 2.15206 35.0933 1.76978C34.8621 1.37335 34.6475 0.863655 34.5814 0.622963C34.4988 0.198211 34.4493 0.169899 33.4914 0.0849453C32.1868 -0.0283207 28.6031 -0.0283205 26.3737 0.0991058L24.6066 0.184052L24.425 0.750389C23.9295 2.32196 22.5919 3.96433 21.1056 4.81382C20.1477 5.35184 19.7018 5.52174 19.8835 5.25273C19.933 5.18194 19.6688 5.1961 19.2724 5.26688C18.0669 5.50758 16.6136 5.32352 15.2924 4.75719C14.3676 4.37492 13.7731 3.96433 12.6666 2.9874C11.8905 2.29364 11.2794 1.84058 11.329 1.968C11.362 2.09543 11.2134 1.8689 10.9822 1.48662C10.7675 1.09019 10.5693 0.651276 10.5693 0.481377C10.5693 0.212372 10.4372 0.1699 9.5619 0.0849463C8.25726 -0.0283196 5.1195 -0.0283195 2.26248 0.0991068L-5.5433e-06 0.184053L-5.38487e-06 3.80858L-5.22644e-06 7.43311L0.858744 7.61717C2.24597 7.88618 3.96348 8.6932 4.92132 9.51438C7.05169 11.3266 7.58016 13.8327 6.27551 16.0838C5.36721 17.6696 3.0717 19.1562 0.90829 19.5385L-4.69049e-06 19.6942L-4.50915e-06 23.8426L-4.32782e-06 27.991L1.02389 28.2317C6.90307 29.6333 8.93435 34.8436 4.93783 38.2133C3.96348 39.0344 1.86613 39.9972 0.743145 40.153L-3.79249e-06 40.2379L-3.63592e-06 43.82L-3.47996e-06 47.3878L1.17253 47.7135C3.35244 48.3223 5.21858 49.6532 6.07734 51.2247C6.47369 51.9327 6.52324 52.2017 6.52324 53.5184C6.52324 54.8351 6.47369 55.1041 6.07734 55.812C5.21858 57.3836 3.35244 58.7145 1.17253 59.3233L-2.94401e-06 59.6489L0.0330173 63.8115L0.0825627 67.974L1.15602 68.2855C3.38548 68.9368 5.16903 70.1827 6.04431 71.7118C6.47369 72.4905 6.52324 72.6887 6.52324 74.0479C6.52324 75.4213 6.4902 75.6054 6.01129 76.4549C5.13601 78.0547 2.93959 79.5414 0.776182 79.9944L-2.04725e-06 80.1643L-1.90305e-06 83.4632L-1.75885e-06 86.7621L0.759672 86.9178C2.90655 87.3851 5.06996 88.8434 5.99476 90.4574C6.4902 91.3211 6.52324 91.491 6.52324 92.8785C6.52324 94.2235 6.47369 94.4501 6.06082 95.1721C5.13602 96.772 3.43501 97.9896 1.17253 98.6409L0.0825641 98.9524L0.0825643 103.157L0.0825644 107.362L0.825729 107.532C2.97261 108 5.21858 109.529 6.07735 111.1C6.47369 111.836 6.52324 112.091 6.52324 113.408C6.52324 114.725 6.47369 114.994 6.07735 115.702C5.21858 117.273 3.25336 118.675 1.12299 119.227L-3.26768e-07 119.524L-1.67716e-07 123.163L-8.04542e-09 126.816L2.26248 126.901ZM19.5202 5.42263C19.6523 5.4651 19.6027 5.50758 19.4211 5.50758C19.2394 5.52174 19.1403 5.47926 19.2064 5.43679C19.2559 5.39431 19.4046 5.38015 19.5202 5.42263ZM20.0156 121.379C20.1477 121.422 20.0982 121.464 19.9165 121.464C19.7348 121.478 19.6358 121.436 19.7018 121.393C19.7514 121.351 19.9 121.337 20.0156 121.379ZM21.2542 121.747C21.5845 121.917 21.4854 121.945 21.056 121.818C20.9074 121.761 20.8248 121.691 20.8744 121.662C20.9074 121.62 21.0891 121.662 21.2542 121.747ZM42.6405 120.388C42.7561 120.431 42.6735 120.459 42.4423 120.459C42.2111 120.459 42.1285 120.431 42.2276 120.388C42.3432 120.36 42.5414 120.36 42.6405 120.388ZM42.9708 5.56421C43.1029 5.60669 43.0534 5.64916 42.8717 5.64916C42.69 5.66332 42.591 5.62084 42.657 5.57837C42.7066 5.5359 42.8552 5.52174 42.9708 5.56421ZM44.3415 5.09698C44.4241 5.09698 44.391 5.16778 44.2589 5.23857C44.1268 5.30936 43.9286 5.38015 43.846 5.38015C43.747 5.38015 43.7965 5.30936 43.9286 5.23857C44.0607 5.16778 44.2424 5.09698 44.3415 5.09698ZM88.3857 119.539C88.5013 119.581 88.4188 119.609 88.1876 119.609C87.9563 119.609 87.8738 119.581 87.9729 119.539C88.0885 119.51 88.2866 119.51 88.3857 119.539ZM159.563 120.388C159.695 120.431 159.646 120.473 159.464 120.473C159.283 120.487 159.183 120.445 159.25 120.402C159.299 120.36 159.448 120.346 159.563 120.388ZM183.014 120.388C183.13 120.431 183.047 120.459 182.816 120.459C182.585 120.459 182.502 120.431 182.601 120.388C182.717 120.36 182.915 120.36 183.014 120.388Z" fill="white"/>
<path d="M36.4579 49.14C35.6739 49.14 34.9973 49 34.4279 48.72C33.8679 48.44 33.4339 48.0153 33.1259 47.446C32.8273 46.8673 32.6779 46.1253 32.6779 45.22V39.536C32.6779 39.4333 32.7059 39.354 32.7619 39.298C32.8179 39.2327 32.8973 39.2 32.9999 39.2H33.7139C33.8166 39.2 33.8959 39.2327 33.9519 39.298C34.0173 39.354 34.0499 39.4333 34.0499 39.536V45.248C34.0499 46.1627 34.2646 46.8393 34.6939 47.278C35.1233 47.7167 35.7113 47.936 36.4579 47.936C37.1953 47.936 37.7786 47.7167 38.2079 47.278C38.6466 46.8393 38.8659 46.1627 38.8659 45.248V39.536C38.8659 39.4333 38.8939 39.354 38.9499 39.298C39.0153 39.2327 39.0946 39.2 39.1879 39.2H39.9159C40.0093 39.2 40.0839 39.2327 40.1399 39.298C40.2053 39.354 40.2379 39.4333 40.2379 39.536V45.22C40.2379 46.1253 40.0839 46.8673 39.7759 47.446C39.4773 48.0153 39.0479 48.44 38.4879 48.72C37.9279 49 37.2513 49.14 36.4579 49.14ZM42.7184 49C42.625 49 42.5457 48.972 42.4804 48.916C42.4244 48.8507 42.3964 48.7713 42.3964 48.678V42.042C42.3964 41.9487 42.4244 41.874 42.4804 41.818C42.5457 41.7527 42.625 41.72 42.7184 41.72H43.3484C43.4417 41.72 43.5164 41.7527 43.5724 41.818C43.6377 41.874 43.6704 41.9487 43.6704 42.042V42.532C43.885 42.2427 44.1557 42.014 44.4824 41.846C44.809 41.6687 45.201 41.58 45.6584 41.58C46.713 41.5707 47.4597 42 47.8984 42.868C48.113 42.476 48.4257 42.1633 48.8364 41.93C49.247 41.6967 49.7137 41.58 50.2364 41.58C50.7217 41.58 51.1604 41.692 51.5524 41.916C51.9537 42.14 52.2664 42.4807 52.4904 42.938C52.7237 43.386 52.8404 43.9507 52.8404 44.632V48.678C52.8404 48.7713 52.8077 48.8507 52.7424 48.916C52.6864 48.972 52.6117 49 52.5184 49H51.8604C51.767 49 51.6877 48.972 51.6224 48.916C51.5664 48.8507 51.5384 48.7713 51.5384 48.678V44.758C51.5384 44.2353 51.4637 43.8247 51.3144 43.526C51.165 43.2273 50.9644 43.0173 50.7124 42.896C50.4604 42.7747 50.185 42.714 49.8864 42.714C49.6437 42.714 49.3964 42.7747 49.1444 42.896C48.8924 43.0173 48.6824 43.2273 48.5144 43.526C48.3557 43.8247 48.2764 44.2353 48.2764 44.758V48.678C48.2764 48.7713 48.2437 48.8507 48.1784 48.916C48.1224 48.972 48.0477 49 47.9544 49H47.2964C47.203 49 47.1237 48.972 47.0584 48.916C47.0024 48.8507 46.9744 48.7713 46.9744 48.678V44.758C46.9744 44.2353 46.895 43.8247 46.7364 43.526C46.5777 43.2273 46.3724 43.0173 46.1204 42.896C45.8684 42.7747 45.6024 42.714 45.3224 42.714C45.0797 42.714 44.8324 42.7747 44.5804 42.896C44.3284 43.0173 44.1184 43.2273 43.9504 43.526C43.7917 43.8247 43.7124 44.2307 43.7124 44.744V48.678C43.7124 48.7713 43.6797 48.8507 43.6144 48.916C43.5584 48.972 43.4837 49 43.3904 49H42.7184ZM56.8678 49.14C56.4011 49.14 55.9764 49.0467 55.5938 48.86C55.2111 48.6733 54.9031 48.4213 54.6698 48.104C54.4364 47.7867 54.3198 47.4273 54.3198 47.026C54.3198 46.382 54.5811 45.8687 55.1038 45.486C55.6264 45.1033 56.3078 44.8513 57.1478 44.73L59.2338 44.436V44.03C59.2338 43.582 59.1031 43.232 58.8418 42.98C58.5898 42.728 58.1744 42.602 57.5958 42.602C57.1758 42.602 56.8351 42.686 56.5738 42.854C56.3218 43.022 56.1444 43.2367 56.0418 43.498C55.9858 43.638 55.8878 43.708 55.7478 43.708H55.1178C55.0151 43.708 54.9358 43.68 54.8798 43.624C54.8331 43.5587 54.8098 43.484 54.8098 43.4C54.8098 43.26 54.8611 43.0873 54.9638 42.882C55.0758 42.6767 55.2438 42.476 55.4678 42.28C55.6918 42.084 55.9764 41.9207 56.3218 41.79C56.6764 41.65 57.1058 41.58 57.6098 41.58C58.1698 41.58 58.6411 41.6547 59.0238 41.804C59.4064 41.944 59.7051 42.1353 59.9198 42.378C60.1438 42.6207 60.3024 42.896 60.3958 43.204C60.4984 43.512 60.5498 43.8247 60.5498 44.142V48.678C60.5498 48.7713 60.5171 48.8507 60.4518 48.916C60.3958 48.972 60.3211 49 60.2278 49H59.5838C59.4811 49 59.4018 48.972 59.3458 48.916C59.2898 48.8507 59.2618 48.7713 59.2618 48.678V48.076C59.1404 48.244 58.9771 48.412 58.7718 48.58C58.5664 48.7387 58.3098 48.874 58.0018 48.986C57.6938 49.0887 57.3158 49.14 56.8678 49.14ZM57.1618 48.09C57.5444 48.09 57.8944 48.0107 58.2118 47.852C58.5291 47.684 58.7764 47.4273 58.9538 47.082C59.1404 46.7367 59.2338 46.3027 59.2338 45.78V45.388L57.6098 45.626C56.9471 45.7193 56.4478 45.878 56.1118 46.102C55.7758 46.3167 55.6078 46.592 55.6078 46.928C55.6078 47.1893 55.6824 47.4087 55.8318 47.586C55.9904 47.754 56.1864 47.88 56.4198 47.964C56.6624 48.048 56.9098 48.09 57.1618 48.09ZM66.316 49C66.2227 49 66.1433 48.972 66.078 48.916C66.022 48.8507 65.994 48.7713 65.994 48.678V42.042C65.994 41.9487 66.022 41.874 66.078 41.818C66.1433 41.7527 66.2227 41.72 66.316 41.72H66.946C67.0393 41.72 67.114 41.7527 67.17 41.818C67.2353 41.874 67.268 41.9487 67.268 42.042V42.532C67.4827 42.2427 67.7533 42.014 68.08 41.846C68.4067 41.6687 68.7987 41.58 69.256 41.58C70.3107 41.5707 71.0573 42 71.496 42.868C71.7107 42.476 72.0233 42.1633 72.434 41.93C72.8447 41.6967 73.3113 41.58 73.834 41.58C74.3193 41.58 74.758 41.692 75.15 41.916C75.5513 42.14 75.864 42.4807 76.088 42.938C76.3213 43.386 76.438 43.9507 76.438 44.632V48.678C76.438 48.7713 76.4053 48.8507 76.34 48.916C76.284 48.972 76.2093 49 76.116 49H75.458C75.3647 49 75.2853 48.972 75.22 48.916C75.164 48.8507 75.136 48.7713 75.136 48.678V44.758C75.136 44.2353 75.0613 43.8247 74.912 43.526C74.7627 43.2273 74.562 43.0173 74.31 42.896C74.058 42.7747 73.7827 42.714 73.484 42.714C73.2413 42.714 72.994 42.7747 72.742 42.896C72.49 43.0173 72.28 43.2273 72.112 43.526C71.9533 43.8247 71.874 44.2353 71.874 44.758V48.678C71.874 48.7713 71.8413 48.8507 71.776 48.916C71.72 48.972 71.6453 49 71.552 49H70.894C70.8007 49 70.7213 48.972 70.656 48.916C70.6 48.8507 70.572 48.7713 70.572 48.678V44.758C70.572 44.2353 70.4927 43.8247 70.334 43.526C70.1753 43.2273 69.97 43.0173 69.718 42.896C69.466 42.7747 69.2 42.714 68.92 42.714C68.6773 42.714 68.43 42.7747 68.178 42.896C67.926 43.0173 67.716 43.2273 67.548 43.526C67.3893 43.8247 67.31 44.2307 67.31 44.744V48.678C67.31 48.7713 67.2773 48.8507 67.212 48.916C67.156 48.972 67.0813 49 66.988 49H66.316ZM80.4654 49.14C79.9987 49.14 79.5741 49.0467 79.1914 48.86C78.8087 48.6733 78.5007 48.4213 78.2674 48.104C78.0341 47.7867 77.9174 47.4273 77.9174 47.026C77.9174 46.382 78.1787 45.8687 78.7014 45.486C79.2241 45.1033 79.9054 44.8513 80.7454 44.73L82.8314 44.436V44.03C82.8314 43.582 82.7007 43.232 82.4394 42.98C82.1874 42.728 81.7721 42.602 81.1934 42.602C80.7734 42.602 80.4327 42.686 80.1714 42.854C79.9194 43.022 79.7421 43.2367 79.6394 43.498C79.5834 43.638 79.4854 43.708 79.3454 43.708H78.7154C78.6127 43.708 78.5334 43.68 78.4774 43.624C78.4307 43.5587 78.4074 43.484 78.4074 43.4C78.4074 43.26 78.4587 43.0873 78.5614 42.882C78.6734 42.6767 78.8414 42.476 79.0654 42.28C79.2894 42.084 79.5741 41.9207 79.9194 41.79C80.2741 41.65 80.7034 41.58 81.2074 41.58C81.7674 41.58 82.2387 41.6547 82.6214 41.804C83.0041 41.944 83.3027 42.1353 83.5174 42.378C83.7414 42.6207 83.9001 42.896 83.9934 43.204C84.0961 43.512 84.1474 43.8247 84.1474 44.142V48.678C84.1474 48.7713 84.1147 48.8507 84.0494 48.916C83.9934 48.972 83.9187 49 83.8254 49H83.1814C83.0787 49 82.9994 48.972 82.9434 48.916C82.8874 48.8507 82.8594 48.7713 82.8594 48.678V48.076C82.7381 48.244 82.5747 48.412 82.3694 48.58C82.1641 48.7387 81.9074 48.874 81.5994 48.986C81.2914 49.0887 80.9134 49.14 80.4654 49.14ZM80.7594 48.09C81.1421 48.09 81.4921 48.0107 81.8094 47.852C82.1267 47.684 82.3741 47.4273 82.5514 47.082C82.7381 46.7367 82.8314 46.3027 82.8314 45.78V45.388L81.2074 45.626C80.5447 45.7193 80.0454 45.878 79.7094 46.102C79.3734 46.3167 79.2054 46.592 79.2054 46.928C79.2054 47.1893 79.2801 47.4087 79.4294 47.586C79.5881 47.754 79.7841 47.88 80.0174 47.964C80.2601 48.048 80.5074 48.09 80.7594 48.09ZM86.482 49C86.3887 49 86.3094 48.972 86.244 48.916C86.188 48.8507 86.16 48.7713 86.16 48.678V42.056C86.16 41.9627 86.188 41.8833 86.244 41.818C86.3094 41.7527 86.3887 41.72 86.482 41.72H87.126C87.2194 41.72 87.2987 41.7527 87.364 41.818C87.4294 41.8833 87.462 41.9627 87.462 42.056V42.672C87.6487 42.3547 87.9054 42.1167 88.232 41.958C88.5587 41.7993 88.9507 41.72 89.408 41.72H89.968C90.0614 41.72 90.136 41.7527 90.192 41.818C90.248 41.874 90.276 41.9487 90.276 42.042V42.616C90.276 42.7093 90.248 42.784 90.192 42.84C90.136 42.896 90.0614 42.924 89.968 42.924H89.128C88.624 42.924 88.2274 43.0733 87.938 43.372C87.6487 43.6613 87.504 44.058 87.504 44.562V48.678C87.504 48.7713 87.4714 48.8507 87.406 48.916C87.3407 48.972 87.2614 49 87.168 49H86.482ZM94.2817 49.14C93.619 49.14 93.045 49.014 92.5597 48.762C92.0837 48.5007 91.715 48.132 91.4537 47.656C91.1923 47.1707 91.0523 46.592 91.0337 45.92C91.0243 45.78 91.0197 45.5933 91.0197 45.36C91.0197 45.1267 91.0243 44.94 91.0337 44.8C91.0523 44.128 91.1923 43.554 91.4537 43.078C91.715 42.5927 92.0837 42.224 92.5597 41.972C93.045 41.7107 93.619 41.58 94.2817 41.58C94.823 41.58 95.285 41.6547 95.6677 41.804C96.0597 41.9533 96.3817 42.1447 96.6337 42.378C96.8857 42.6113 97.0723 42.8633 97.1937 43.134C97.3243 43.4047 97.3943 43.6613 97.4037 43.904C97.413 43.9973 97.385 44.072 97.3197 44.128C97.2543 44.184 97.175 44.212 97.0817 44.212H96.4097C96.3163 44.212 96.2463 44.1933 96.1997 44.156C96.153 44.1093 96.1063 44.0347 96.0597 43.932C95.8917 43.4747 95.663 43.1527 95.3737 42.966C95.0843 42.7793 94.725 42.686 94.2957 42.686C93.7357 42.686 93.2783 42.8587 92.9237 43.204C92.5783 43.5493 92.3917 44.1047 92.3637 44.87C92.3543 45.206 92.3543 45.5327 92.3637 45.85C92.3917 46.6247 92.5783 47.1847 92.9237 47.53C93.2783 47.866 93.7357 48.034 94.2957 48.034C94.725 48.034 95.0843 47.9407 95.3737 47.754C95.663 47.5673 95.8917 47.2453 96.0597 46.788C96.1063 46.6853 96.153 46.6153 96.1997 46.578C96.2463 46.5313 96.3163 46.508 96.4097 46.508H97.0817C97.175 46.508 97.2543 46.536 97.3197 46.592C97.385 46.648 97.413 46.7227 97.4037 46.816C97.3943 47.012 97.3523 47.2127 97.2777 47.418C97.203 47.6233 97.0817 47.8333 96.9137 48.048C96.755 48.2533 96.5543 48.44 96.3117 48.608C96.069 48.7667 95.775 48.8973 95.4297 49C95.0937 49.0933 94.711 49.14 94.2817 49.14ZM101.096 49.14C100.63 49.14 100.205 49.0467 99.8223 48.86C99.4396 48.6733 99.1316 48.4213 98.8983 48.104C98.6649 47.7867 98.5483 47.4273 98.5483 47.026C98.5483 46.382 98.8096 45.8687 99.3323 45.486C99.8549 45.1033 100.536 44.8513 101.376 44.73L103.462 44.436V44.03C103.462 43.582 103.332 43.232 103.07 42.98C102.818 42.728 102.403 42.602 101.824 42.602C101.404 42.602 101.064 42.686 100.802 42.854C100.55 43.022 100.373 43.2367 100.27 43.498C100.214 43.638 100.116 43.708 99.9763 43.708H99.3463C99.2436 43.708 99.1643 43.68 99.1083 43.624C99.0616 43.5587 99.0383 43.484 99.0383 43.4C99.0383 43.26 99.0896 43.0873 99.1923 42.882C99.3043 42.6767 99.4723 42.476 99.6963 42.28C99.9203 42.084 100.205 41.9207 100.55 41.79C100.905 41.65 101.334 41.58 101.838 41.58C102.398 41.58 102.87 41.6547 103.252 41.804C103.635 41.944 103.934 42.1353 104.148 42.378C104.372 42.6207 104.531 42.896 104.624 43.204C104.727 43.512 104.778 43.8247 104.778 44.142V48.678C104.778 48.7713 104.746 48.8507 104.68 48.916C104.624 48.972 104.55 49 104.456 49H103.812C103.71 49 103.63 48.972 103.574 48.916C103.518 48.8507 103.49 48.7713 103.49 48.678V48.076C103.369 48.244 103.206 48.412 103 48.58C102.795 48.7387 102.538 48.874 102.23 48.986C101.922 49.0887 101.544 49.14 101.096 49.14ZM101.39 48.09C101.773 48.09 102.123 48.0107 102.44 47.852C102.758 47.684 103.005 47.4273 103.182 47.082C103.369 46.7367 103.462 46.3027 103.462 45.78V45.388L101.838 45.626C101.176 45.7193 100.676 45.878 100.34 46.102C100.004 46.3167 99.8363 46.592 99.8363 46.928C99.8363 47.1893 99.9109 47.4087 100.06 47.586C100.219 47.754 100.415 47.88 100.648 47.964C100.891 48.048 101.138 48.09 101.39 48.09ZM112.883 49.14C112.369 49.14 111.926 49.0513 111.553 48.874C111.179 48.6873 110.871 48.44 110.629 48.132C110.395 47.8147 110.218 47.4553 110.097 47.054C109.985 46.6527 109.919 46.228 109.901 45.78C109.891 45.6307 109.887 45.4907 109.887 45.36C109.887 45.2293 109.891 45.0893 109.901 44.94C109.919 44.5013 109.985 44.0813 110.097 43.68C110.218 43.2787 110.395 42.9193 110.629 42.602C110.871 42.2847 111.179 42.0373 111.553 41.86C111.926 41.6733 112.369 41.58 112.883 41.58C113.433 41.58 113.891 41.678 114.255 41.874C114.619 42.07 114.917 42.3127 115.151 42.602V39.382C115.151 39.2887 115.179 39.214 115.235 39.158C115.3 39.0927 115.379 39.06 115.473 39.06H116.145C116.238 39.06 116.313 39.0927 116.369 39.158C116.434 39.214 116.467 39.2887 116.467 39.382V48.678C116.467 48.7713 116.434 48.8507 116.369 48.916C116.313 48.972 116.238 49 116.145 49H115.515C115.412 49 115.333 48.972 115.277 48.916C115.221 48.8507 115.193 48.7713 115.193 48.678V48.09C114.959 48.3887 114.656 48.6407 114.283 48.846C113.909 49.042 113.443 49.14 112.883 49.14ZM113.177 48.006C113.643 48.006 114.017 47.8987 114.297 47.684C114.577 47.4693 114.787 47.1987 114.927 46.872C115.067 46.536 115.141 46.1953 115.151 45.85C115.16 45.7007 115.165 45.5233 115.165 45.318C115.165 45.1033 115.16 44.9213 115.151 44.772C115.141 44.4453 115.062 44.1233 114.913 43.806C114.773 43.4887 114.558 43.2273 114.269 43.022C113.989 42.8167 113.625 42.714 113.177 42.714C112.701 42.714 112.323 42.8213 112.043 43.036C111.763 43.2413 111.562 43.5167 111.441 43.862C111.319 44.198 111.249 44.562 111.231 44.954C111.221 45.2247 111.221 45.4953 111.231 45.766C111.249 46.158 111.319 46.5267 111.441 46.872C111.562 47.208 111.763 47.4833 112.043 47.698C112.323 47.9033 112.701 48.006 113.177 48.006ZM121.531 49.14C120.821 49.14 120.229 49.0047 119.753 48.734C119.277 48.4633 118.913 48.09 118.661 47.614C118.409 47.1287 118.269 46.578 118.241 45.962C118.231 45.8033 118.227 45.6027 118.227 45.36C118.227 45.108 118.231 44.9073 118.241 44.758C118.269 44.1327 118.409 43.582 118.661 43.106C118.922 42.63 119.291 42.2567 119.767 41.986C120.243 41.7153 120.831 41.58 121.531 41.58C122.231 41.58 122.819 41.7153 123.295 41.986C123.771 42.2567 124.135 42.63 124.387 43.106C124.648 43.582 124.793 44.1327 124.821 44.758C124.83 44.9073 124.835 45.108 124.835 45.36C124.835 45.6027 124.83 45.8033 124.821 45.962C124.793 46.578 124.653 47.1287 124.401 47.614C124.149 48.09 123.785 48.4633 123.309 48.734C122.833 49.0047 122.24 49.14 121.531 49.14ZM121.531 48.062C122.109 48.062 122.571 47.88 122.917 47.516C123.262 47.1427 123.449 46.6013 123.477 45.892C123.486 45.752 123.491 45.5747 123.491 45.36C123.491 45.1453 123.486 44.968 123.477 44.828C123.449 44.1187 123.262 43.582 122.917 43.218C122.571 42.8447 122.109 42.658 121.531 42.658C120.952 42.658 120.485 42.8447 120.131 43.218C119.785 43.582 119.603 44.1187 119.585 44.828C119.575 44.968 119.571 45.1453 119.571 45.36C119.571 45.5747 119.575 45.752 119.585 45.892C119.603 46.6013 119.785 47.1427 120.131 47.516C120.485 47.88 120.952 48.062 121.531 48.062ZM133.001 52.08C132.367 52.08 131.844 51.996 131.433 51.828C131.032 51.66 130.715 51.4547 130.481 51.212C130.257 50.9787 130.094 50.7407 129.991 50.498C129.898 50.2647 129.847 50.078 129.837 49.938C129.828 49.8447 129.856 49.7653 129.921 49.7C129.996 49.6347 130.075 49.602 130.159 49.602H130.831C130.915 49.602 130.985 49.6207 131.041 49.658C131.097 49.6953 131.144 49.7747 131.181 49.896C131.237 50.036 131.321 50.19 131.433 50.358C131.545 50.5353 131.718 50.6847 131.951 50.806C132.185 50.9367 132.511 51.002 132.931 51.002C133.37 51.002 133.739 50.9413 134.037 50.82C134.336 50.708 134.56 50.5027 134.709 50.204C134.868 49.9147 134.947 49.5133 134.947 49V48.048C134.723 48.3373 134.429 48.58 134.065 48.776C133.701 48.9627 133.244 49.056 132.693 49.056C132.171 49.056 131.723 48.9673 131.349 48.79C130.976 48.6033 130.668 48.356 130.425 48.048C130.192 47.7307 130.015 47.3713 129.893 46.97C129.781 46.5687 129.716 46.1487 129.697 45.71C129.688 45.4487 129.688 45.192 129.697 44.94C129.716 44.5013 129.781 44.0813 129.893 43.68C130.015 43.2787 130.192 42.9193 130.425 42.602C130.668 42.2847 130.976 42.0373 131.349 41.86C131.723 41.6733 132.171 41.58 132.693 41.58C133.253 41.58 133.715 41.6873 134.079 41.902C134.453 42.1073 134.756 42.3593 134.989 42.658V42.056C134.989 41.9627 135.017 41.8833 135.073 41.818C135.139 41.7527 135.218 41.72 135.311 41.72H135.955C136.049 41.72 136.128 41.7527 136.193 41.818C136.259 41.8833 136.291 41.9627 136.291 42.056V48.846C136.291 49.4713 136.184 50.0267 135.969 50.512C135.764 50.9973 135.419 51.38 134.933 51.66C134.457 51.94 133.813 52.08 133.001 52.08ZM132.973 47.936C133.44 47.936 133.813 47.8287 134.093 47.614C134.383 47.3993 134.593 47.1287 134.723 46.802C134.863 46.4753 134.938 46.144 134.947 45.808C134.957 45.6773 134.961 45.5187 134.961 45.332C134.961 45.136 134.957 44.9727 134.947 44.842C134.938 44.506 134.863 44.1747 134.723 43.848C134.593 43.5213 134.383 43.2507 134.093 43.036C133.813 42.8213 133.44 42.714 132.973 42.714C132.507 42.714 132.133 42.8213 131.853 43.036C131.573 43.2413 131.373 43.5167 131.251 43.862C131.13 44.198 131.06 44.562 131.041 44.954C131.032 45.1967 131.032 45.444 131.041 45.696C131.06 46.088 131.13 46.4567 131.251 46.802C131.373 47.138 131.573 47.4133 131.853 47.628C132.133 47.8333 132.507 47.936 132.973 47.936ZM138.695 49C138.602 49 138.522 48.972 138.457 48.916C138.401 48.8507 138.373 48.7713 138.373 48.678V42.056C138.373 41.9627 138.401 41.8833 138.457 41.818C138.522 41.7527 138.602 41.72 138.695 41.72H139.339C139.432 41.72 139.512 41.7527 139.577 41.818C139.642 41.8833 139.675 41.9627 139.675 42.056V42.672C139.862 42.3547 140.118 42.1167 140.445 41.958C140.772 41.7993 141.164 41.72 141.621 41.72H142.181C142.274 41.72 142.349 41.7527 142.405 41.818C142.461 41.874 142.489 41.9487 142.489 42.042V42.616C142.489 42.7093 142.461 42.784 142.405 42.84C142.349 42.896 142.274 42.924 142.181 42.924H141.341C140.837 42.924 140.44 43.0733 140.151 43.372C139.862 43.6613 139.717 44.058 139.717 44.562V48.678C139.717 48.7713 139.684 48.8507 139.619 48.916C139.554 48.972 139.474 49 139.381 49H138.695ZM146.407 49.14C145.81 49.14 145.301 49.0093 144.881 48.748C144.471 48.4773 144.158 48.104 143.943 47.628C143.729 47.152 143.621 46.606 143.621 45.99V42.042C143.621 41.9487 143.649 41.874 143.705 41.818C143.771 41.7527 143.85 41.72 143.943 41.72H144.643C144.737 41.72 144.811 41.7527 144.867 41.818C144.933 41.874 144.965 41.9487 144.965 42.042V45.92C144.965 47.3107 145.572 48.006 146.785 48.006C147.364 48.006 147.826 47.824 148.171 47.46C148.526 47.0867 148.703 46.5733 148.703 45.92V42.042C148.703 41.9487 148.731 41.874 148.787 41.818C148.853 41.7527 148.932 41.72 149.025 41.72H149.711C149.814 41.72 149.893 41.7527 149.949 41.818C150.005 41.874 150.033 41.9487 150.033 42.042V48.678C150.033 48.7713 150.005 48.8507 149.949 48.916C149.893 48.972 149.814 49 149.711 49H149.067C148.974 49 148.895 48.972 148.829 48.916C148.773 48.8507 148.745 48.7713 148.745 48.678V48.062C148.493 48.3887 148.185 48.65 147.821 48.846C147.467 49.042 146.995 49.14 146.407 49.14ZM152.449 51.66C152.356 51.66 152.276 51.6273 152.211 51.562C152.155 51.506 152.127 51.4313 152.127 51.338V42.042C152.127 41.9487 152.155 41.874 152.211 41.818C152.276 41.7527 152.356 41.72 152.449 41.72H153.093C153.186 41.72 153.261 41.7527 153.317 41.818C153.382 41.874 153.415 41.9487 153.415 42.042V42.658C153.639 42.35 153.938 42.0933 154.311 41.888C154.684 41.6827 155.151 41.58 155.711 41.58C156.234 41.58 156.677 41.6687 157.041 41.846C157.414 42.0233 157.718 42.266 157.951 42.574C158.194 42.882 158.376 43.232 158.497 43.624C158.618 44.016 158.684 44.436 158.693 44.884C158.702 45.0333 158.707 45.192 158.707 45.36C158.707 45.528 158.702 45.6867 158.693 45.836C158.684 46.2747 158.618 46.6947 158.497 47.096C158.376 47.488 158.194 47.838 157.951 48.146C157.718 48.4447 157.414 48.6873 157.041 48.874C156.677 49.0513 156.234 49.14 155.711 49.14C155.17 49.14 154.712 49.042 154.339 48.846C153.975 48.6407 153.676 48.3887 153.443 48.09V51.338C153.443 51.4313 153.415 51.506 153.359 51.562C153.303 51.6273 153.224 51.66 153.121 51.66H152.449ZM155.417 48.006C155.902 48.006 156.28 47.9033 156.551 47.698C156.831 47.4833 157.032 47.208 157.153 46.872C157.274 46.5267 157.344 46.158 157.363 45.766C157.372 45.4953 157.372 45.2247 157.363 44.954C157.344 44.562 157.274 44.198 157.153 43.862C157.032 43.5167 156.831 43.2413 156.551 43.036C156.28 42.8213 155.902 42.714 155.417 42.714C154.96 42.714 154.586 42.8213 154.297 43.036C154.017 43.2507 153.807 43.526 153.667 43.862C153.536 44.1887 153.462 44.5247 153.443 44.87C153.434 45.0193 153.429 45.1967 153.429 45.402C153.429 45.6073 153.434 45.7893 153.443 45.948C153.452 46.2747 153.527 46.5967 153.667 46.914C153.816 47.2313 154.036 47.4927 154.325 47.698C154.614 47.9033 154.978 48.006 155.417 48.006ZM163.435 49.14C162.726 49.14 162.133 49.0047 161.657 48.734C161.181 48.4633 160.817 48.09 160.565 47.614C160.313 47.1287 160.173 46.578 160.145 45.962C160.136 45.8033 160.131 45.6027 160.131 45.36C160.131 45.108 160.136 44.9073 160.145 44.758C160.173 44.1327 160.313 43.582 160.565 43.106C160.826 42.63 161.195 42.2567 161.671 41.986C162.147 41.7153 162.735 41.58 163.435 41.58C164.135 41.58 164.723 41.7153 165.199 41.986C165.675 42.2567 166.039 42.63 166.291 43.106C166.552 43.582 166.697 44.1327 166.725 44.758C166.734 44.9073 166.739 45.108 166.739 45.36C166.739 45.6027 166.734 45.8033 166.725 45.962C166.697 46.578 166.557 47.1287 166.305 47.614C166.053 48.09 165.689 48.4633 165.213 48.734C164.737 49.0047 164.144 49.14 163.435 49.14ZM163.435 48.062C164.014 48.062 164.476 47.88 164.821 47.516C165.166 47.1427 165.353 46.6013 165.381 45.892C165.39 45.752 165.395 45.5747 165.395 45.36C165.395 45.1453 165.39 44.968 165.381 44.828C165.353 44.1187 165.166 43.582 164.821 43.218C164.476 42.8447 164.014 42.658 163.435 42.658C162.856 42.658 162.39 42.8447 162.035 43.218C161.69 43.582 161.508 44.1187 161.489 44.828C161.48 44.968 161.475 45.1453 161.475 45.36C161.475 45.5747 161.48 45.752 161.489 45.892C161.508 46.6013 161.69 47.1427 162.035 47.516C162.39 47.88 162.856 48.062 163.435 48.062Z" fill="#4B5563"/>
<path fill-rule="evenodd" clip-rule="evenodd" d="M24.0719 72.0781C24.3388 71.4317 36.2301 49.8763 36.2301 61.6055C36.2301 65.3038 35.074 69.433 34.426 73.0713C35.112 71.4676 48.0071 49.4694 48.0071 61.6773C48.0071 65.639 46.5207 69.5167 46.33 73.4543C45.9109 82.5982 64.8659 57.9553 66.365 56.1719C59.9621 65.5553 49.3411 78.7444 46.3428 78.8161C38.5804 78.9719 46.9525 62.4552 43.8528 62.4552C41.5532 62.4552 33.5749 75.513 33.5749 78.1341C33.5749 78.2059 33.6004 78.3255 33.6383 78.5052C33.4859 78.541 33.2318 78.6248 32.8507 78.7444C32.6982 78.8042 32.4568 78.8281 32.1265 78.8281C31.1356 78.8281 30.64 78.3016 30.64 77.2363C30.64 72.8321 32.8889 68.2003 32.8889 63.724C32.8889 62.9222 32.622 62.5153 32.0885 62.5153C29.5985 62.5153 23.6399 74.9862 23.6399 77.6433C23.6399 77.8947 23.7288 78.1461 23.894 78.3853C22.4838 79.0676 20.5908 79.1154 20.5908 76.8055C20.5908 72.9876 23.2463 64.0113 20.8577 60.9232C22.2806 60.3489 24.9103 59.1999 24.9103 62.0363C24.9103 65.3278 24.3641 68.7986 24.0719 72.0781Z" fill="#003CE5"/>
<path fill-rule="evenodd" clip-rule="evenodd" d="M173.915 78.6208V65.9104H177.409V78.6208H173.915ZM159.065 78.6208V76.3736H166.33C166.78 76.3736 167.243 76.3522 167.685 76.2831C167.998 76.234 168.322 76.1571 168.599 76.03C168.795 75.9401 168.97 75.8227 169.085 75.6677C169.199 75.5154 169.241 75.344 169.241 75.169C169.241 75.0277 169.204 74.8934 169.123 74.767C169.031 74.623 168.891 74.5002 168.735 74.396C168.488 74.2312 168.167 74.0911 167.879 73.9754C167.406 73.7855 166.905 73.6229 166.411 73.4701L163.057 72.4341C162.482 72.2564 161.91 72.0514 161.381 71.8002C160.94 71.5913 160.518 71.3452 160.162 71.0525C159.846 70.7931 159.584 70.4982 159.407 70.167C159.234 69.8435 159.151 69.5025 159.151 69.152C159.151 68.6628 159.295 68.1971 159.618 67.7765C159.952 67.3418 160.436 67.0034 160.986 66.7408C161.621 66.4379 162.332 66.2404 163.056 66.1142C163.919 65.9638 164.817 65.9104 165.699 65.9104H171.904V68.1405H164.82C164.51 68.1405 164.192 68.161 163.89 68.2191C163.655 68.264 163.427 68.3335 163.225 68.4375C163.076 68.5147 162.935 68.6116 162.845 68.7341C162.764 68.8442 162.731 68.9648 162.731 69.0915C162.731 69.2125 162.763 69.327 162.834 69.4349C162.914 69.5587 163.038 69.6636 163.174 69.7517C163.424 69.9133 163.81 70.062 164.101 70.1723C164.69 70.3959 165.299 70.5951 165.909 70.7821L168.828 71.6767C169.425 71.8595 170.014 72.0741 170.563 72.3346C171.017 72.5501 171.454 72.803 171.82 73.1054C172.492 73.66 172.85 74.3218 172.85 75.0858C172.85 75.6196 172.704 76.1337 172.363 76.5997C172.018 77.0718 171.515 77.4411 170.927 77.7279C170.251 78.0582 169.483 78.2686 168.707 78.4021C167.762 78.5649 166.775 78.6208 165.809 78.6208H159.065ZM154.142 78.6208V65.9104H157.636V78.6208H154.142ZM145.07 75.5671L149.928 66.071L150.011 65.9104H153.564L153.337 66.3498L147.833 77.0662C147.695 77.3356 147.529 77.6002 147.328 77.8446C147.16 78.0484 146.961 78.2432 146.721 78.3987C146.497 78.5444 146.243 78.6523 145.966 78.7231C145.677 78.7968 145.373 78.8281 145.07 78.8281C144.767 78.8281 144.464 78.7971 144.175 78.7238C143.899 78.654 143.645 78.5466 143.423 78.4016C143.185 78.2471 142.987 78.0528 142.82 77.8509C142.617 77.6059 142.451 77.3386 142.306 77.0669L136.575 65.9104H140.144L140.247 66.1135L145.07 75.5671ZM132.507 78.6208V65.9104H136.002V78.6208H132.507ZM122.307 68.037H117.176V65.9104H130.933V68.037H125.802V78.6208H122.307V68.037ZM108.503 65.9104H111.998V74.3462C111.998 74.6608 112.057 74.9796 112.222 75.2691C112.369 75.5296 112.592 75.7458 112.878 75.9228C113.205 76.1249 113.585 76.2597 113.986 76.3463C114.497 76.4574 115.044 76.4945 115.573 76.4945H119.623V78.6208H116.031C114.955 78.6208 113.847 78.5539 112.801 78.3499C111.956 78.1849 111.128 77.9234 110.429 77.5104C109.785 77.1296 109.299 76.6453 108.978 76.0668C108.631 75.4431 108.503 74.7604 108.503 74.0843V65.9104ZM95.4718 65.9104V73.7418C95.4718 74.5368 95.6932 75.3521 96.4502 75.9238C96.7901 76.1806 97.1979 76.3585 97.6447 76.4754C98.19 76.6177 98.7802 76.6671 99.3529 76.6671C99.9249 76.6671 100.513 76.6175 101.057 76.4754C101.506 76.358 101.915 76.1796 102.257 75.923C102.593 75.6711 102.832 75.3663 102.989 75.0248C103.178 74.6169 103.244 74.1736 103.244 73.7418V65.9104H106.738V73.8196C106.738 74.5258 106.589 75.2239 106.227 75.874C105.877 76.5003 105.353 77.0339 104.688 77.478C103.995 77.9412 103.199 78.2762 102.331 78.4941C101.371 78.7351 100.358 78.8281 99.3529 78.8281C98.3483 78.8281 97.3352 78.7353 96.3762 78.4946C95.5076 78.2766 94.7109 77.942 94.0178 77.478C93.3546 77.0339 92.8331 76.5001 92.4856 75.8742C92.125 75.2239 91.9775 74.5253 91.9775 73.8196V65.9104H95.4718ZM79.5348 75.0196L83.5906 67.1628C83.698 66.9549 83.8325 66.7545 84.0036 66.5738C84.1666 66.4017 84.3595 66.2494 84.582 66.1242C84.8023 66.0004 85.0452 65.9072 85.305 65.8459C85.5726 65.783 85.8508 65.7549 86.1299 65.7549C86.4436 65.7549 86.7581 65.7864 87.0556 65.865C87.3382 65.9392 87.594 66.0541 87.8163 66.2087C88.0408 66.3651 88.2195 66.5533 88.3552 66.7625C88.5018 66.9883 88.5986 67.2336 88.6628 67.4848L91.2283 78.3184L91.3004 78.6208H87.9104L87.8482 78.3562L85.8045 69.5096L81.7555 77.3315C81.6469 77.5412 81.5175 77.7465 81.3609 77.9371C81.2249 78.1024 81.0651 78.2608 80.8739 78.3894C80.6909 78.5122 80.483 78.6052 80.2556 78.6674C80.024 78.7309 79.7814 78.759 79.5365 78.759C79.2893 78.759 79.0425 78.7336 78.8067 78.6733C78.5783 78.6145 78.3695 78.5244 78.1852 78.4041C77.9913 78.2776 77.8298 78.1202 77.6938 77.9549C77.5328 77.7592 77.4007 77.547 77.2892 77.3317L73.2417 69.5138L71.1649 78.6208H67.7453L70.3821 67.4826C70.4453 67.2344 70.5421 66.9888 70.6889 66.7625C70.8247 66.5533 71.0036 66.3651 71.2281 66.2087C71.4502 66.0541 71.7065 65.9392 71.9888 65.865C72.2866 65.7864 72.6011 65.7549 72.9148 65.7549C73.1939 65.7549 73.4721 65.783 73.7394 65.8459C73.9992 65.9074 74.2421 66.0004 74.4619 66.1242C74.6845 66.2492 74.8766 66.4015 75.0381 66.5741C75.208 66.7554 75.3415 66.9563 75.4437 67.1616L79.5348 75.0196Z" fill="#003CE5"/>
</svg>
