<svg width="48" height="48" viewBox="0 0 48 48" fill="none" xmlns="http://www.w3.org/2000/svg">
<path fill-rule="evenodd" clip-rule="evenodd" d="M32.5768 23.3992C32.7442 23.4093 32.8892 23.5669 32.9989 23.8611C33.0686 24.0138 33.1265 24.1965 33.1723 24.4144C33.2012 24.592 33.2307 24.8463 33.2536 25.1711C33.3348 26.5111 33.109 28.0746 32.5768 29.8719C31.6761 32.9232 27.5834 42.1589 23.9033 45.4875C16.9946 51.7367 13.927 22.5143 13.9298 22.5156C14.6972 22.8438 16.9989 25.0235 17.5168 26.0273C19.0626 29.0214 19.4441 34.7758 20.3984 37.6647C22.325 43.4966 24.2628 40.4068 31.4077 24.8866C31.4856 24.7181 31.5989 24.5059 31.749 24.2522C31.8476 24.0592 31.946 23.9018 32.0326 23.7749C32.2349 23.5059 32.4202 23.3838 32.5768 23.3992V23.3992Z" fill="#662D52"/>
<path fill-rule="evenodd" clip-rule="evenodd" d="M15.3363 10.7045C11.9432 21.838 40.0444 12.7647 33.9739 26.8777C25.2032 20.1985 3.79579 27.921 15.3363 10.7045V10.7045Z" fill="#E19938"/>
<path fill-rule="evenodd" clip-rule="evenodd" d="M35.195 20.3192C40.6593 5.40195 16.4143 15.4381 19.2324 4.30396C9.16413 21.0146 27.9099 13.6398 35.195 20.3192Z" fill="#B0723A"/>
<path fill-rule="evenodd" clip-rule="evenodd" d="M34.1818 12.1478C37.3382 2.0245 21.4421 9.51448 22.9541 2C16.7759 13.4708 29.0787 7.93602 34.1818 12.1478Z" fill="#F9CD81"/>
</svg>
